HIERARCHY
ROOT Pelvis
{
	OFFSET 0.000000 0.000000 0.000000
	CHANNELS 6 Xposition Yposition Zposition Xrotation Yrotation Zrotation
	JOINT LeftUpLeg_virtual
	{
		OFFSET 0.000000 0.000000 0.000000
		CHANNELS 3 Xrotation Yrotation Zrotation
		JOINT LeftUpLeg
		{
			OFFSET 18.735201 -5.666702 -4.541200
			CHANNELS 3 Xrotation Yrotation Zrotation
			JOINT LeftLeg
			{
				OFFSET -0.021200 -31.938179 0.493100
				CHANNELS 3 Xrotation Yrotation Zrotation
				JOINT LeftFoot
				{
					OFFSET 0.021200 -31.938179 -4.336299
					CHANNELS 3 Xrotation Yrotation Zrotation
					JOINT LeftToeBase
					{
						OFFSET 0.943001 -26.722000 15.023500
						CHANNELS 3 Xrotation Yrotation Zrotation
						End Site
						{
							OFFSET 0 0 0
						}
					}
				}
			}
		}
	}
	JOINT RightUpLeg_virtual
	{
		OFFSET 0.000000 0.000000 0.000000
		CHANNELS 3 Xrotation Yrotation Zrotation
		JOINT RightUpLeg
		{
			OFFSET -18.735201 -5.666702 -4.541200
			CHANNELS 3 Xrotation Yrotation Zrotation
			JOINT RightLeg
			{
				OFFSET 0.018946 -31.938133 0.493100
				CHANNELS 3 Xrotation Yrotation Zrotation
				JOINT RightFoot
				{
					OFFSET -0.018946 -31.938126 -4.336299
					CHANNELS 3 Xrotation Yrotation Zrotation
					JOINT RightToeBase
					{
						OFFSET -0.943001 -26.722004 15.023500
						CHANNELS 3 Xrotation Yrotation Zrotation
						End Site
						{
							OFFSET 0 0 0
						}
					}
				}
			}
		}
	}
	JOINT Hips_virtual
	{
		OFFSET 0.000000 0.000000 0.000000
		CHANNELS 3 Xrotation Yrotation Zrotation
		JOINT Hips
		{
			OFFSET -0.000000 -0.000000 -0.000000
			CHANNELS 3 Xrotation Yrotation Zrotation
			JOINT Spine
			{
				OFFSET 0.000000 10.199997 -0.299500
				CHANNELS 3 Xrotation Yrotation Zrotation
				JOINT Spine1
				{
					OFFSET 0.000000 11.900002 -1.516600
					CHANNELS 3 Xrotation Yrotation Zrotation
					JOINT Spine2
					{
						OFFSET 0.000000 13.600006 -2.842500
						CHANNELS 3 Xrotation Yrotation Zrotation
						JOINT Neck_virtual
						{
							OFFSET 0.000000 0.000000 0.000000
							CHANNELS 3 Xrotation Yrotation Zrotation
							JOINT Neck
							{
								OFFSET 0.000000 9.624100 -2.890100
								CHANNELS 3 Xrotation Yrotation Zrotation
								JOINT Head
								{
									OFFSET 0.000000 14.068802 -1.351900
									CHANNELS 3 Xrotation Yrotation Zrotation
									End Site
									{
										OFFSET 0 0 0
									}
								}
							}
						}
						JOINT LeftShoulder_virtual
						{
							OFFSET 0.000000 0.000000 0.000000
							CHANNELS 3 Xrotation Yrotation Zrotation
							JOINT LeftShoulder
							{
								OFFSET 15.263000 10.923401 -0.547700
								CHANNELS 3 Xrotation Yrotation Zrotation
								JOINT LeftArm
								{
									OFFSET 25.438599 -2.830597 -13.032500
									CHANNELS 3 Xrotation Yrotation Zrotation
									JOINT LeftForeArm
									{
										OFFSET 29.960503 0.000000 0.000000
										CHANNELS 3 Xrotation Yrotation Zrotation
										JOINT LeftHand
										{
											OFFSET 27.849251 0.000000 0.000000
											CHANNELS 3 Xrotation Yrotation Zrotation
											End Site
											{
												OFFSET 0 0 0
											}
										}
									}
								}
							}
						}
						JOINT RightShoulder_virtual
						{
							OFFSET 0.000000 0.000000 0.000000
							CHANNELS 3 Xrotation Yrotation Zrotation
							JOINT RightShoulder
							{
								OFFSET -15.263000 10.923401 -0.547700
								CHANNELS 3 Xrotation Yrotation Zrotation
								JOINT RightArm
								{
									OFFSET -25.438599 -2.830597 -13.032500
									CHANNELS 3 Xrotation Yrotation Zrotation
									JOINT RightForeArm
									{
										OFFSET -29.960503 0.000000 0.000000
										CHANNELS 3 Xrotation Yrotation Zrotation
										JOINT RightHand
										{
											OFFSET -27.849251 0.000000 0.000000
											CHANNELS 3 Xrotation Yrotation Zrotation
											End Site
											{
												OFFSET 0 0 0
											}
										}
									}
								}
							}
						}
					}
				}
			}
		}
	}
}
MOTION
Frames: 5
Frame Time: 0.03333333
-3.919166 91.628578 8.325253 0.000000 0.000000 0.000000 58.951452 -79.838054 55.687205 -34.789306 -11.923930 19.613645 38.557056 9.623928 -8.484325 -11.761780 13.801454 -13.628893 0.000000 0.000000 0.000000 104.119643 -77.312346 101.543514 -25.958677 -35.994626 -18.756108 37.774894 -6.941332 -1.558410 -12.176598 -9.570906 3.536140 0.000000 0.000000 0.000000 -8.118599 -62.930651 -0.895128 7.208675 -58.382217 -2.995057 5.621869 -3.422883 1.095727 -0.805805 -1.254226 1.756010 0.000000 0.000000 0.000000 -1.009208 0.769590 3.293104 -1.462962 2.490984 0.920912 0.000000 0.000000 0.000000 -1.171386 -1.086726 0.917988 -0.429381 -0.336310 -3.664813 0.565958 -2.131310 -57.492434 5.814608 -27.209068 -10.692949 0.000000 0.000000 0.000000 -0.785936 -2.161378 3.132278 1.588039 0.346437 15.961443 19.098819 5.906965 41.844915 12.523195 56.432556 -5.705701 0.000000 0.000000 0.000000 
-3.763667 91.568817 6.796072 0.000000 0.000000 0.000000 64.477990 -80.291592 61.819789 -35.414042 -12.466155 20.197713 39.810816 9.870516 -9.081254 -10.806202 14.240941 -14.305138 0.000000 0.000000 0.000000 107.397095 -77.116620 105.396506 -26.927215 -36.246967 -18.752580 38.223009 -6.180242 -2.004036 -11.803199 -8.554016 3.302407 0.000000 0.000000 0.000000 -8.204610 -63.223291 -0.899522 7.108659 -59.561695 -2.948195 5.807215 -3.574055 1.167494 -0.739255 -1.340704 1.829997 0.000000 0.000000 0.000000 -1.049173 0.412483 3.314370 -1.489990 2.230047 0.934329 0.000000 0.000000 0.000000 -1.108903 -1.150550 0.992419 -0.363527 -0.609204 -3.622473 0.646737 -1.668911 -57.617147 5.685461 -26.717282 -10.730225 0.000000 0.000000 0.000000 -0.711190 -2.291347 3.213003 1.644537 -0.042152 16.253898 18.675390 6.236534 42.240612 12.322828 56.333177 -5.457603 0.000000 0.000000 0.000000 
-3.637603 91.528320 5.207553 0.000000 0.000000 0.000000 71.360847 -80.669882 69.319890 -36.042154 -13.071183 20.805258 41.226236 9.976591 -9.558625 -9.716791 14.488863 -14.873642 0.000000 0.000000 0.000000 110.024621 -76.864620 108.634671 -27.867691 -36.468395 -18.649862 38.611411 -5.385716 -2.454732 -11.486600 -7.499734 3.090952 0.000000 0.000000 0.000000 -8.304536 -63.538900 -0.932202 7.041685 -60.799072 -2.892880 6.005189 -3.707756 1.224971 -0.668285 -1.414341 1.897700 0.000000 0.000000 0.000000 -1.068184 0.066130 3.324018 -1.508341 1.970446 0.943137 0.000000 0.000000 0.000000 -1.045238 -1.205501 1.058678 -0.300825 -0.888915 -3.619388 0.707364 -1.218333 -57.794445 5.537934 -26.260015 -10.784478 0.000000 0.000000 0.000000 -0.625449 -2.407780 3.285945 1.704340 -0.406077 16.516907 18.296151 6.640180 42.601655 12.165238 56.239569 -5.240044 0.000000 0.000000 0.000000 
-3.541942 91.511154 3.576707 0.000000 0.000000 0.000000 79.652969 -80.914355 78.192415 -36.629181 -13.725234 21.388266 42.733082 9.939483 -9.865162 -8.539502 14.524990 -15.272230 0.000000 0.000000 0.000000 112.051828 -76.559140 111.304974 -28.750366 -36.674305 -18.428597 38.923479 -4.601133 -2.890357 -11.244329 -6.463955 2.905589 0.000000 0.000000 0.000000 -8.432295 -63.884638 -1.005995 6.973872 -62.099001 -2.855319 6.207372 -3.819511 1.264755 -0.596453 -1.472789 1.956426 0.000000 0.000000 0.000000 -1.058317 -0.261773 3.322761 -1.514476 1.716702 0.948101 0.000000 0.000000 0.000000 -0.984226 -1.249776 1.113064 -0.243620 -1.170511 -3.662388 0.745147 -0.775374 -58.031623 5.369620 -25.840790 -10.858286 0.000000 0.000000 0.000000 -0.534071 -2.508115 3.347744 1.762080 -0.740427 16.744480 17.946092 7.110159 42.926974 12.043979 56.157921 -5.051294 0.000000 0.000000 0.000000 
-3.471910 91.519943 1.926190 0.000000 0.000000 0.000000 89.112754 -80.963430 88.142225 -37.132983 -14.406337 21.887160 44.247980 9.767467 -9.956515 -7.327465 14.341773 -15.443379 0.000000 0.000000 0.000000 113.524588 -76.202426 113.447318 -29.547665 -36.877325 -18.075968 39.141000 -3.857661 -3.295507 -11.093025 -5.488753 2.749750 0.000000 0.000000 0.000000 -8.600404 -64.263583 -1.132569 6.868289 -63.457758 -2.867264 6.405190 -3.904875 1.284379 -0.527294 -1.513949 2.004050 0.000000 0.000000 0.000000 -1.012561 -0.566398 3.310571 -1.505222 1.471570 0.949597 0.000000 0.000000 0.000000 -0.928887 -1.281784 1.152128 -0.193141 -1.448906 -3.756808 0.765716 -0.336687 -58.333395 5.181975 -25.458588 -10.952569 0.000000 0.000000 0.000000 -0.442978 -2.590345 3.396079 1.812155 -1.041499 16.934979 17.611983 7.636420 43.218575 11.951787 56.091347 -4.887271 0.000000 0.000000 0.000000 
